<svg width="156" height="35" viewBox="0 0 156 35" fill="none" xmlns="http://www.w3.org/2000/svg">
<path d="M49.747 9.84375H38.471C38.0611 9.84375 37.6681 10.0067 37.3784 10.2967C37.0886 10.5867 36.9258 10.98 36.9258 11.3901C36.9258 11.8003 37.0886 12.1936 37.3784 12.4836C37.6681 12.7736 38.0611 12.9365 38.471 12.9365H42.5638V24.8399C42.5638 25.25 42.7266 25.6434 43.0164 25.9334C43.3062 26.2234 43.6992 26.3863 44.109 26.3863C44.5188 26.3863 44.9118 26.2234 45.2016 25.9334C45.4914 25.6434 45.6542 25.25 45.6542 24.8399V12.9365H49.747C50.1568 12.9365 50.5498 12.7736 50.8396 12.4836C51.1294 12.1936 51.2922 11.8003 51.2922 11.3901C51.2922 10.98 51.1294 10.5867 50.8396 10.2967C50.5498 10.0067 50.1568 9.84375 49.747 9.84375Z" fill="#00CE7C"/>
<path d="M66.3581 15.3204C66.3565 13.8682 65.7792 12.476 64.7531 11.4493C63.727 10.4226 62.3358 9.84516 60.8847 9.84375H54.4173C54.0076 9.84375 53.6146 10.0065 53.3247 10.2962C53.0348 10.586 52.8717 10.979 52.8711 11.3891V24.8389C52.8711 25.249 53.0339 25.6423 53.3237 25.9323C53.6134 26.2223 54.0065 26.3852 54.4163 26.3852C54.8261 26.3852 55.2191 26.2223 55.5089 25.9323C55.7986 25.6423 55.9614 25.249 55.9614 24.8389V20.8002H59.741L63.5906 25.7847C63.7136 25.9484 63.8677 26.086 64.0442 26.1895C64.2207 26.2931 64.416 26.3604 64.6188 26.3878C64.8215 26.4151 65.0277 26.4019 65.2252 26.3488C65.4228 26.2958 65.6079 26.2039 65.7697 26.0787C65.9315 25.9534 66.0669 25.7972 66.1679 25.6192C66.2688 25.4411 66.3335 25.2447 66.358 25.0415C66.3825 24.8382 66.3664 24.6321 66.3107 24.4351C66.2549 24.2381 66.1606 24.0542 66.0332 23.894L63.2317 20.2667L63.2221 20.2518C64.1565 19.8097 64.9467 19.112 65.5014 18.2393C66.0562 17.3666 66.3528 16.3547 66.3571 15.3204H66.3581ZM60.8847 17.7064H60.5014V17.7276H60.4791V17.7064H55.9614V12.9354H60.8847C61.5171 12.9354 62.1235 13.1868 62.5706 13.6343C63.0177 14.0817 63.2689 14.6886 63.2689 15.3214C63.2689 15.9542 63.0177 16.5611 62.5706 17.0086C62.1235 17.4561 61.5171 17.7074 60.8847 17.7074" fill="#00CE7C"/>
<path d="M70.1613 9.84375C69.7519 9.84403 69.3593 10.0069 69.0698 10.2967C68.7802 10.5864 68.6175 10.9793 68.6172 11.3891V24.8388C68.6172 25.2488 68.7799 25.642 69.0696 25.9319C69.3593 26.2218 69.7522 26.3847 70.1618 26.3847C70.5715 26.3847 70.9644 26.2218 71.254 25.9319C71.5437 25.642 71.7065 25.2488 71.7065 24.8388V11.3891C71.7062 10.9793 71.5434 10.5864 71.2539 10.2967C70.9644 10.0069 70.5718 9.84403 70.1623 9.84375" fill="#00CE7C"/>
<path d="M82.2361 9.84375H76.6947C76.285 9.84375 75.892 10.0065 75.6021 10.2962C75.3122 10.586 75.149 10.979 75.1484 11.3891V24.8388C75.1484 25.2488 75.3112 25.642 75.6009 25.9319C75.8905 26.2218 76.2834 26.3847 76.6931 26.3847C77.1027 26.3847 77.4956 26.2218 77.7853 25.9319C78.075 25.642 78.2377 25.2488 78.2377 24.8388V21.5718H82.2361C83.7764 21.551 85.2467 20.9241 86.3286 19.8266C87.4105 18.7292 88.0172 17.2495 88.0172 15.7078C88.0172 14.1661 87.4105 12.6864 86.3286 11.5889C85.2467 10.4915 83.7764 9.8645 82.2361 9.84375ZM82.2361 18.4801H78.2377V12.9365H82.2361C82.5998 12.9365 82.9599 13.0082 83.2959 13.1475C83.632 13.2868 83.9373 13.491 84.1945 13.7483C84.4517 14.0057 84.6557 14.3113 84.7949 14.6476C84.934 14.9839 85.0057 15.3443 85.0057 15.7083C85.0057 16.0723 84.934 16.4327 84.7949 16.769C84.6557 17.1053 84.4517 17.4109 84.1945 17.6683C83.9373 17.9256 83.632 18.1298 83.2959 18.2691C82.9599 18.4084 82.5998 18.4801 82.2361 18.4801Z" fill="#00CE7C"/>
<path d="M102.225 21.8713C102.225 21.4613 102.062 21.068 101.773 20.7779C101.483 20.4878 101.09 20.3245 100.681 20.3239C101.09 20.3245 101.483 20.4878 101.773 20.7779C102.062 21.068 102.225 21.4613 102.225 21.8713C102.227 21.1187 102.036 20.3781 101.669 19.721C101.303 19.0638 100.773 18.5123 100.132 18.1197C98.8437 17.3362 97.4175 16.8077 95.9304 16.5626H95.923C92.891 15.9037 92.8921 14.775 92.9983 13.9662C93.1141 13.0735 93.8776 12.5559 95.8858 12.6611C95.9653 12.6724 96.0455 12.6781 96.1258 12.6781C97.2064 12.8305 98.248 13.1876 99.1949 13.7303C99.5587 13.9187 99.9823 13.9548 100.373 13.8306C100.763 13.7065 101.088 13.4322 101.276 13.0681C101.465 12.7041 101.501 12.2801 101.377 11.8895C101.253 11.4988 100.979 11.1735 100.615 10.985C99.2936 10.2336 97.8342 9.75718 96.3244 9.58427H96.2671C96.0111 9.56621 95.7605 9.55664 95.5152 9.55664C92.1997 9.55664 89.9164 11.1455 89.8315 14.572C89.8101 15.3323 89.9955 16.0841 90.3679 16.7472C90.7403 17.4102 91.2857 17.9595 91.9459 18.3365C92.9704 18.9474 94.0963 19.3693 95.2699 19.5821H95.2847C99.1323 20.3855 99.1333 21.4611 99.1333 21.866C99.1378 22.0947 99.0956 22.3218 99.0094 22.5336C98.9232 22.7453 98.7948 22.9373 98.6321 23.0978C97.9568 23.6377 97.1008 23.8989 96.2394 23.828H96.0557H96.0472C94.4782 23.7614 92.9636 23.2331 91.6931 22.3092C91.3503 22.0837 90.9321 22.0037 90.5304 22.0868C90.1287 22.17 89.7764 22.4094 89.5511 22.7524C89.3258 23.0955 89.2459 23.514 89.3289 23.916C89.412 24.3181 89.6512 24.6706 89.994 24.8961C91.7474 26.141 93.8275 26.8432 95.9761 26.9154H95.9846C96.0695 26.9154 96.1545 26.9154 96.2373 26.9154C97.0644 26.9638 97.8928 26.8471 98.6744 26.5721C99.456 26.2971 100.175 25.8694 100.79 25.3138C101.249 24.8658 101.612 24.3298 101.858 23.738C102.105 23.1461 102.23 22.5105 102.225 21.8692V21.8713ZM96.2108 9.58427H96.197H96.1757H96.2108Z" fill="#00CE7C"/>
<path d="M112.373 9.40625C110.642 9.40625 108.95 9.91993 107.511 10.8823C106.071 11.8447 104.95 13.2126 104.287 14.8131C103.625 16.4135 103.452 18.1745 103.789 19.8735C104.127 21.5725 104.96 23.1332 106.184 24.3581C107.408 25.583 108.968 26.4171 110.665 26.7551C112.363 27.093 114.123 26.9196 115.722 26.2567C117.321 25.5938 118.688 24.4712 119.65 23.0308C120.611 21.5905 121.125 19.8971 121.125 18.1648C121.122 15.8427 120.199 13.6164 118.558 11.9744C116.918 10.3324 114.693 9.40878 112.373 9.40625ZM112.373 23.8317C111.253 23.8315 110.159 23.499 109.228 22.8764C108.297 22.2537 107.572 21.3688 107.143 20.3336C106.715 19.2984 106.603 18.1592 106.821 17.0603C107.04 15.9613 107.579 14.9519 108.371 14.1595C109.162 13.3672 110.171 12.8276 111.269 12.609C112.367 12.3903 113.505 12.5025 114.54 12.9312C115.574 13.3599 116.459 14.0859 117.081 15.0175C117.703 15.949 118.035 17.0443 118.035 18.1648C118.034 19.6672 117.436 21.1077 116.375 22.17C115.313 23.2324 113.874 23.83 112.373 23.8317Z" fill="#00CE7C"/>
<path d="M130.979 9.8457H124.848C124.438 9.84627 124.045 10.0096 123.756 10.2998C123.467 10.5899 123.304 10.9832 123.305 11.3931V24.8397C123.304 25.2497 123.467 25.643 123.756 25.9331C124.045 26.2233 124.438 26.3866 124.848 26.3872H130.973C135.373 26.334 138.678 22.797 138.678 18.1154C138.678 13.4337 135.376 9.89884 130.98 9.84677L130.979 9.8457ZM130.873 23.2944H126.392V12.9374H130.877C133.607 12.9374 135.587 15.1151 135.587 18.1154C135.587 21.1167 133.607 23.2934 130.877 23.2934" fill="#00CE7C"/>
<path d="M155.44 24.1388L148.62 10.7061C148.638 10.7476 148.653 10.7901 148.666 10.8336C148.613 10.7007 148.542 10.5758 148.454 10.4627C148.428 10.4254 148.399 10.3899 148.368 10.3564C148.251 10.2271 148.112 10.1192 147.958 10.0376C147.95 10.0376 147.944 10.0237 147.935 10.0195C147.915 10.0122 147.894 10.0061 147.873 10.0014C147.729 9.93536 147.575 9.89267 147.417 9.87494C147.379 9.8682 147.34 9.86359 147.301 9.86113C147.278 9.86113 147.257 9.85156 147.233 9.85156C147.078 9.85287 146.924 9.87759 146.777 9.9249C146.754 9.93234 146.734 9.94403 146.71 9.95253C146.561 10.0073 146.421 10.0852 146.295 10.1832C146.267 10.2055 146.241 10.2204 146.215 10.2448C146.081 10.3636 145.969 10.5054 145.885 10.6635C145.877 10.6774 145.864 10.6827 145.857 10.6965L139.034 24.1388C138.94 24.32 138.882 24.518 138.865 24.7215C138.848 24.925 138.871 25.13 138.933 25.3245C138.995 25.519 139.095 25.6993 139.228 25.8548C139.36 26.0104 139.522 26.1381 139.704 26.2307C139.886 26.3233 140.084 26.3789 140.288 26.3942C140.491 26.4095 140.696 26.3843 140.889 26.3201C141.083 26.2558 141.262 26.1537 141.416 26.0198C141.57 25.8858 141.696 25.7226 141.787 25.5396L142.871 23.4044H151.602L152.684 25.5396C152.869 25.9053 153.193 26.1823 153.582 26.3096C153.972 26.4368 154.396 26.404 154.762 26.2182C155.127 26.0325 155.404 25.709 155.531 25.3191C155.658 24.9291 155.625 24.5046 155.44 24.1388ZM148.742 11.7221C148.715 11.8476 148.672 11.969 148.614 12.0835C148.672 11.9689 148.715 11.8474 148.742 11.7221ZM148.773 11.4606V11.4415C148.773 11.4128 148.781 11.3799 148.78 11.3501C148.782 11.3855 148.782 11.421 148.78 11.4564L148.773 11.4606ZM148.726 10.9739C148.742 11.0369 148.754 11.1008 148.763 11.1652C148.754 11.1008 148.742 11.0369 148.726 10.9739ZM150.04 20.3085H144.448L147.244 14.7989L150.04 20.3085Z" fill="#00CE7C"/>
<path d="M8.0519 6.69571C8.68633 6.96429 9.38614 7.03833 10.0627 6.90846C10.7392 6.77859 11.3619 6.45065 11.852 5.96621C12.3421 5.48176 12.6775 4.86261 12.8156 4.18723C12.9538 3.51184 12.8884 2.81062 12.6279 2.17242C12.4582 1.74867 12.2062 1.36282 11.8864 1.03718C11.5667 0.71155 11.1856 0.4526 10.7652 0.275316C9.91451 -0.0847771 8.95569 -0.091905 8.09971 0.2555C7.24372 0.602905 6.56069 1.27639 6.20088 2.12778C5.84107 2.97918 5.83395 3.93875 6.18108 4.79541C6.52822 5.65206 7.20117 6.33562 8.0519 6.69571ZM7.66428 2.75059C7.83381 2.34639 8.13819 2.01356 8.52551 1.80886C8.91283 1.60416 9.35912 1.54025 9.78826 1.62805C10.2174 1.71584 10.6028 1.9499 10.8788 2.2903C11.1548 2.63071 11.3042 3.05638 11.3016 3.49473C11.2991 3.93308 11.1446 4.35696 10.8647 4.6941C10.5847 5.03123 10.1966 5.26073 9.76642 5.34347C9.33628 5.4262 8.89077 5.35705 8.50588 5.1478C8.12099 4.93855 7.82055 4.60216 7.65579 4.196C7.56121 3.96658 7.51325 3.72061 7.51471 3.47244C7.51617 3.22427 7.56702 2.97887 7.66428 2.75059Z" fill="#00CE7C"/>
<path d="M13.7112 31.4779C11.1816 31.4786 8.73757 30.5609 6.83266 28.8952C4.92775 27.2295 3.69126 24.9288 3.35261 22.42C3.01396 19.9111 3.59615 17.3646 4.99115 15.2527C6.38614 13.1408 8.49924 11.6071 10.9384 10.936C11.1158 9.97396 11.4238 9.04068 11.8538 8.16211C9.48867 8.50372 7.26365 9.49204 5.42386 11.0182C3.58406 12.5443 2.20089 14.5491 1.42671 16.8116C0.652532 19.0741 0.517393 21.5066 1.03618 23.8411C1.55497 26.1755 2.70755 28.3214 4.36695 30.0423C6.02635 31.7631 8.12818 32.9922 10.4409 33.5941C12.7536 34.196 15.1875 34.1474 17.4743 33.4536C19.7612 32.7597 21.8123 31.4477 23.4017 29.6619C24.9912 27.8761 26.0572 25.6859 26.4825 23.3326C25.5977 23.667 24.673 23.8842 23.732 23.9788C23.0914 26.1423 21.7699 28.041 19.9641 29.3922C18.1584 30.7434 15.9649 31.4749 13.7101 31.4779" fill="#00CE7C"/>
<path d="M22.6399 2.24805C21.3757 2.25081 20.1219 2.47601 18.9357 2.91336C19.0712 3.17057 19.1161 3.46601 19.0631 3.75191C18.9911 4.09269 18.7873 4.39112 18.4963 4.58207C18.2052 4.77302 17.8504 4.84099 17.5095 4.77114C17.3209 4.72981 17.144 4.64667 16.9919 4.52785C16.8397 4.40902 16.7161 4.25755 16.6302 4.08457C15.4305 4.8769 14.3987 5.89826 13.594 7.09018C13.3911 7.39733 13.201 7.71405 13.0269 8.04139C12.2816 9.44662 11.8532 10.9982 11.7716 12.587C11.7621 12.7709 11.7578 12.9558 11.7578 13.1407C11.7615 16.028 12.9091 18.7959 14.9491 20.8375C16.9891 22.8791 19.7549 24.0276 22.6399 24.0313C23.0045 24.0318 23.3689 24.0134 23.7316 23.976C23.9846 23.1253 24.1274 22.2455 24.1564 21.3583C24.1564 21.2425 24.1659 21.1309 24.1659 21.015C24.1657 19.9537 24.0024 18.8988 23.6817 17.8872C23.6381 17.7427 23.5925 17.5397 23.5925 17.5397C23.5837 17.4827 23.5791 17.4251 23.5787 17.3675C23.578 17.0702 23.682 16.7823 23.8724 16.5541C24.0627 16.3259 24.3273 16.1721 24.6197 16.1198C24.9121 16.0674 25.2136 16.1197 25.4712 16.2676C25.7289 16.4155 25.9262 16.6495 26.0286 16.9286C26.0424 16.9647 26.0541 17.004 26.0647 17.0348C26.4244 18.1405 26.632 19.29 26.6818 20.4518C26.6903 20.6399 26.6956 20.8269 26.6956 21.015C26.6948 21.7908 26.6238 22.5648 26.4832 23.3277C28.8665 22.4275 30.8588 20.7191 32.1129 18.5C33.367 16.2809 33.8035 13.6918 33.3462 11.1837C32.8889 8.6757 31.5669 6.40771 29.6105 4.77486C27.6541 3.14201 25.1873 2.24782 22.6399 2.24805ZM22.2268 7.68429C22.2438 7.60198 22.2849 7.52659 22.3447 7.46762C22.4046 7.40866 22.4806 7.36878 22.5631 7.35302C22.6456 7.33727 22.7309 7.34634 22.8082 7.37909C22.8856 7.41185 22.9515 7.46682 22.9977 7.53705C23.0438 7.60729 23.0681 7.68963 23.0675 7.77369C23.0669 7.85774 23.0414 7.93973 22.9942 8.00928C22.9471 8.07884 22.8804 8.13285 22.8026 8.16448C22.7247 8.19611 22.6393 8.20395 22.557 8.187C22.5024 8.17573 22.4504 8.15378 22.4042 8.12241C22.358 8.09104 22.3184 8.05086 22.2878 8.00417C22.2571 7.95748 22.2359 7.90519 22.2255 7.85031C22.215 7.79542 22.2154 7.739 22.2268 7.68429ZM18.4833 6.77347C18.518 6.60912 18.6006 6.45874 18.7207 6.34132C18.8407 6.22391 18.9928 6.14471 19.1578 6.11372C19.3228 6.08273 19.4932 6.10135 19.6476 6.16721C19.802 6.23308 19.9335 6.34325 20.0254 6.48381C20.1173 6.62438 20.1656 6.78904 20.1641 6.95702C20.1625 7.125 20.1113 7.28877 20.0169 7.42765C19.9225 7.56654 19.7891 7.67432 19.6335 7.7374C19.4779 7.80048 19.3072 7.81602 19.1428 7.78207C19.0332 7.75943 18.9291 7.71534 18.8366 7.65234C18.7441 7.58933 18.6649 7.50865 18.6036 7.41493C18.5423 7.32121 18.5001 7.21629 18.4795 7.10621C18.4589 6.99613 18.4602 6.88305 18.4833 6.77347ZM26.1646 11.369L24.0937 13.2257L23.858 13.4383C23.835 13.4601 23.8066 13.4752 23.7758 13.4821C23.7449 13.4891 23.7128 13.4875 23.6827 13.4776L19.7386 12.232L22.864 14.381C22.8875 14.3973 22.907 14.4188 22.9208 14.4439C22.9346 14.469 22.9424 14.4969 22.9436 14.5256L22.984 16.209L23.0031 17.0157L22.3988 15.8009C22.3846 15.7735 22.3636 15.7502 22.3379 15.7331C22.3122 15.716 22.2826 15.7057 22.2519 15.7032C22.2211 15.7006 22.1902 15.7059 22.162 15.7185C22.1339 15.7312 22.1094 15.7507 22.0908 15.7754L20.1241 18.4484C20.1061 18.4728 20.0823 18.4923 20.0548 18.505C20.0273 18.5177 19.9971 18.5233 19.9669 18.5212C19.9367 18.5191 19.9075 18.5093 19.882 18.4929C19.8566 18.4764 19.8357 18.4538 19.8214 18.4271L15.6425 10.7399L15.0531 9.65685L14.8991 9.3784C14.8832 9.34862 14.8759 9.31496 14.8781 9.28124C14.8803 9.24753 14.8919 9.2151 14.9116 9.18765C14.9313 9.1602 14.9582 9.13882 14.9895 9.12595C15.0207 9.11307 15.0549 9.10922 15.0882 9.11482L15.3006 9.15096L20.7634 10.1181L26.0732 11.0544C26.1076 11.06 26.1396 11.0752 26.1656 11.0984C26.1916 11.1215 26.2104 11.1516 26.2199 11.1851C26.2294 11.2186 26.2291 11.2541 26.2191 11.2874C26.2091 11.3207 26.1898 11.3505 26.1635 11.3733" fill="#00CE7C"/>
</svg>
